<svg width="201" height="200" viewBox="0 0 201 200" fill="none" xmlns="http://www.w3.org/2000/svg">
<path d="M95.6846 189.3C96.4944 189.695 97.3835 189.9 98.2846 189.9C99.1856 189.9 100.075 189.695 100.885 189.3L171.285 148.3C171.591 148.186 171.855 147.982 172.041 147.714C172.228 147.445 172.328 147.127 172.328 146.8C172.328 146.473 172.228 146.155 172.041 145.886C171.855 145.618 171.591 145.414 171.285 145.3L106.585 115.8C105.775 115.405 104.886 115.2 103.985 115.2C103.084 115.2 102.194 115.405 101.385 115.8L30.9846 148.9C30.6784 149.014 30.4143 149.218 30.2278 149.486C30.0413 149.755 29.9413 150.073 29.9413 150.4C29.9413 150.727 30.0413 151.045 30.2278 151.314C30.4143 151.582 30.6784 151.786 30.9846 151.9L95.6846 189.3Z" fill="black"/>
<path d="M98.2846 190.15C97.3394 190.172 96.404 189.955 95.5646 189.52V189.52L30.8546 152.12C30.5098 151.983 30.2141 151.746 30.0057 151.44C29.7973 151.133 29.6858 150.771 29.6858 150.4C29.6858 150.029 29.7973 149.667 30.0057 149.36C30.2141 149.054 30.5098 148.817 30.8546 148.68L101.265 115.57C102.11 115.158 103.039 114.944 103.98 114.944C104.92 114.944 105.849 115.158 106.695 115.57L171.375 145.06C171.723 145.195 172.022 145.432 172.232 145.74C172.443 146.047 172.556 146.412 172.556 146.785C172.556 147.158 172.443 147.523 172.232 147.83C172.022 148.138 171.723 148.375 171.375 148.51L100.985 189.51C100.151 189.943 99.2235 190.162 98.2846 190.15V190.15ZM95.8046 189.08C96.5834 189.459 97.4383 189.656 98.3046 189.656C99.1708 189.656 100.026 189.459 100.805 189.08L171.195 148.08C171.463 147.99 171.696 147.818 171.861 147.588C172.027 147.359 172.116 147.083 172.116 146.8C172.116 146.517 172.027 146.241 171.861 146.012C171.696 145.782 171.463 145.61 171.195 145.52L106.485 116C105.706 115.619 104.851 115.421 103.985 115.421C103.118 115.421 102.263 115.619 101.485 116L31.0946 149.13C30.844 149.242 30.6277 149.419 30.4679 149.642C30.308 149.865 30.2102 150.127 30.1846 150.4C30.2115 150.676 30.3107 150.939 30.4723 151.164C30.6339 151.389 30.852 151.567 31.1046 151.68L95.8046 189.08V189.08Z" fill="black"/>
<path d="M101.085 184.3C101.137 184.966 101.137 185.634 101.085 186.3C101.085 186.8 100.685 187.3 99.9846 187.7C99.1535 188.143 98.2263 188.375 97.2846 188.375C96.3428 188.375 95.4156 188.143 94.5846 187.7C94.2768 187.553 94.0131 187.328 93.82 187.048C93.6269 186.767 93.5112 186.44 93.4846 186.1V184.2H101.085V184.3Z" fill="#FCACA9"/>
<path d="M97.2846 188.63C96.2953 188.646 95.3193 188.401 94.4546 187.92C94.1099 187.75 93.8159 187.492 93.6019 187.173C93.3878 186.853 93.2612 186.484 93.2346 186.1V184.2C93.2346 184.134 93.2609 184.07 93.3078 184.023C93.3547 183.976 93.4183 183.95 93.4846 183.95H101.085C101.151 183.95 101.214 183.976 101.261 184.023C101.308 184.07 101.335 184.134 101.335 184.2V184.29C101.391 184.972 101.391 185.658 101.335 186.34C101.335 186.89 100.895 187.46 100.105 187.92C99.2435 188.401 98.2707 188.646 97.2846 188.63V188.63ZM93.7346 184.45V186.1C93.764 186.398 93.8722 186.683 94.0479 186.925C94.2236 187.168 94.4606 187.359 94.7346 187.48C95.5283 187.899 96.4122 188.117 97.3096 188.117C98.2069 188.117 99.0908 187.899 99.8846 187.48C100.505 187.12 100.885 186.69 100.885 186.29C100.934 185.674 100.934 185.056 100.885 184.44L93.7346 184.45Z" fill="black"/>
<path d="M171.285 143.3C171.337 143.966 171.337 144.634 171.285 145.3C171.285 145.8 170.885 146.3 170.185 146.7C169.354 147.143 168.426 147.375 167.485 147.375C166.543 147.375 165.616 147.143 164.785 146.7C164.477 146.553 164.213 146.328 164.02 146.048C163.827 145.767 163.711 145.44 163.685 145.1V143.2H171.285V143.3Z" fill="#FCACA9"/>
<path d="M167.485 147.63C166.495 147.646 165.519 147.401 164.655 146.92C164.31 146.75 164.016 146.492 163.802 146.173C163.588 145.853 163.461 145.484 163.435 145.1V143.2C163.446 143.143 163.478 143.091 163.523 143.055C163.569 143.018 163.626 142.999 163.685 143H171.285C171.351 143 171.414 143.026 171.461 143.073C171.508 143.12 171.535 143.184 171.535 143.25V143.34C171.591 144.022 171.591 144.708 171.535 145.39C171.535 145.94 171.095 146.51 170.305 146.97C169.439 147.433 168.466 147.661 167.485 147.63V147.63ZM163.935 143.45V145.1C163.964 145.398 164.072 145.683 164.248 145.925C164.424 146.168 164.661 146.359 164.935 146.48C165.728 146.901 166.612 147.121 167.51 147.121C168.407 147.121 169.292 146.901 170.085 146.48C170.715 146.12 171.085 145.69 171.085 145.29C171.134 144.674 171.134 144.056 171.085 143.44L163.935 143.45Z" fill="black"/>
<path d="M39.9846 149.3C40.0372 149.966 40.0372 150.634 39.9846 151.3C39.9846 151.8 39.5846 152.3 38.8846 152.7C38.0535 153.143 37.1263 153.375 36.1846 153.375C35.2428 153.375 34.3156 153.143 33.4846 152.7C33.1768 152.553 32.9131 152.328 32.72 152.048C32.5269 151.767 32.4112 151.44 32.3846 151.1V149.2H39.9846V149.3Z" fill="#FCACA9"/>
<path d="M36.1846 153.63C35.1953 153.646 34.2193 153.401 33.3546 152.92C33.0099 152.75 32.7159 152.492 32.5019 152.173C32.2878 151.853 32.1612 151.484 32.1346 151.1V149.2C32.1346 149.134 32.1609 149.07 32.2078 149.023C32.2547 148.976 32.3183 148.95 32.3846 148.95H39.9846C40.0509 148.95 40.1145 148.976 40.1613 149.023C40.2082 149.07 40.2346 149.134 40.2346 149.2V149.29C40.2912 149.972 40.2912 150.658 40.2346 151.34C40.2346 151.89 39.7946 152.46 39.0046 152.92C38.1435 153.401 37.1707 153.646 36.1846 153.63ZM32.6846 149.45V151.1C32.714 151.398 32.8222 151.683 32.9979 151.925C33.1736 152.168 33.4106 152.359 33.6846 152.48C34.4775 152.901 35.3617 153.121 36.2596 153.121C37.1574 153.121 38.0416 152.901 38.8346 152.48C39.4546 152.12 39.8346 151.69 39.8346 151.29C39.8843 150.674 39.8843 150.056 39.8346 149.44L32.6846 149.45Z" fill="black"/>
<path d="M98.8846 185L173.185 141.1C173.226 141.469 173.163 141.842 173.004 142.178C172.845 142.513 172.596 142.798 172.285 143L97.9846 186.9C98.2819 186.684 98.5202 186.397 98.6775 186.065C98.8347 185.733 98.9059 185.367 98.8846 185Z" fill="#3D3BFF"/>
<path d="M97.9846 187.15C97.9406 187.151 97.8971 187.141 97.8585 187.12C97.8198 187.098 97.7874 187.068 97.7646 187.03C97.7318 186.973 97.7228 186.905 97.7397 186.841C97.7565 186.778 97.7978 186.723 97.8546 186.69C98.121 186.498 98.3361 186.244 98.4809 185.949C98.6256 185.654 98.6956 185.328 98.6846 185C98.6842 184.958 98.6951 184.916 98.7162 184.879C98.7373 184.842 98.7678 184.811 98.8046 184.79L173.105 140.88C173.143 140.861 173.186 140.851 173.23 140.851C173.273 140.851 173.316 140.861 173.355 140.88C173.393 140.902 173.426 140.934 173.448 140.973C173.471 141.011 173.484 141.055 173.485 141.1C173.536 141.512 173.469 141.93 173.292 142.305C173.115 142.68 172.835 142.998 172.485 143.22L98.2046 187.12C98.1375 187.157 98.0591 187.168 97.9846 187.15V187.15ZM99.1346 185.15C99.1172 185.457 99.0566 185.76 98.9546 186.05L172.155 142.8C172.372 142.673 172.554 142.494 172.685 142.279C172.815 142.065 172.891 141.821 172.905 141.57L99.1346 185.15Z" fill="black"/>
<path d="M108.485 76L103.885 78.7L36.8846 118.3L34.1846 119.9C33.8879 119.674 33.5341 119.536 33.1631 119.501C32.792 119.465 32.4185 119.534 32.0846 119.7L35.5846 117.6L102.585 78L106.385 75.8C106.725 75.665 107.094 75.6128 107.459 75.6475C107.824 75.6823 108.175 75.8031 108.485 76V76Z" fill="white"/>
<path d="M34.1846 120.15C34.1424 120.164 34.0967 120.164 34.0546 120.15C33.7942 119.954 33.4853 119.832 33.161 119.799C32.8367 119.765 32.5095 119.821 32.2146 119.96C32.1569 119.99 32.09 119.998 32.027 119.981C31.9641 119.965 31.9097 119.925 31.8746 119.87C31.8565 119.843 31.8443 119.812 31.8385 119.78C31.8328 119.748 31.8337 119.715 31.8412 119.683C31.8487 119.651 31.8626 119.621 31.8821 119.595C31.9016 119.568 31.9263 119.546 31.9546 119.53L35.4546 117.43L102.455 77.82L106.265 75.62C106.637 75.4603 107.044 75.3941 107.448 75.4272C107.852 75.4603 108.243 75.5917 108.585 75.81C108.627 75.8297 108.663 75.8606 108.69 75.8993C108.716 75.9381 108.732 75.9832 108.735 76.03C108.735 76.0753 108.725 76.1201 108.704 76.1603C108.683 76.2005 108.652 76.2348 108.615 76.26L104.015 78.96L34.3146 120.16C34.271 120.166 34.2267 120.162 34.1846 120.15V120.15ZM33.2746 119.28C33.5948 119.336 33.9028 119.448 34.1846 119.61L36.7546 118.08L103.755 78.48L107.915 76C107.695 75.9 107.456 75.8482 107.215 75.8482C106.973 75.8482 106.734 75.9 106.515 76L102.685 78.22L35.6846 117.81L33.2746 119.28Z" fill="black"/>
<path d="M170.585 116.3C170.211 115.325 169.548 114.488 168.685 113.9L115.385 83C115.167 82.8524 114.919 82.7574 114.658 82.7227C114.398 82.688 114.133 82.7145 113.885 82.8L39.5846 126.7C39.8283 126.59 40.098 126.55 40.3632 126.585C40.6283 126.621 40.8783 126.73 41.0846 126.9L94.4846 157.7C95.3478 158.288 96.0108 159.125 96.3846 160.1C96.5783 160.506 96.6807 160.95 96.6846 161.4L96.4846 164.8C96.4846 165.5 96.2846 166 95.8846 166.2L170.185 122.3C170.585 122.1 170.785 121.6 170.785 120.9L170.985 117.5C170.882 117.09 170.748 116.689 170.585 116.3V116.3Z" fill="white"/>
<path d="M95.8846 166.45C95.8398 166.449 95.796 166.437 95.7575 166.414C95.719 166.391 95.687 166.359 95.6646 166.32C95.6348 166.264 95.6276 166.198 95.6443 166.137C95.661 166.076 95.7004 166.023 95.7546 165.99L95.8446 165.93C95.992 165.784 96.1038 165.606 96.1715 165.411C96.2391 165.215 96.2607 165.006 96.2346 164.8L96.4346 161.39C96.432 160.982 96.3398 160.579 96.1646 160.21C95.8042 159.28 95.1738 158.479 94.3546 157.91L40.9546 127.12C40.784 126.973 40.5757 126.876 40.3531 126.84C40.1304 126.805 39.9024 126.833 39.6946 126.92C39.6372 126.949 39.571 126.955 39.5096 126.936C39.4481 126.917 39.3962 126.876 39.3646 126.82C39.3348 126.764 39.3276 126.698 39.3443 126.637C39.361 126.576 39.4004 126.523 39.4546 126.49L113.755 82.58C114.039 82.4696 114.346 82.4302 114.649 82.465C114.952 82.4998 115.243 82.608 115.495 82.78L168.805 113.68C169.71 114.299 170.407 115.178 170.805 116.2C170.939 116.496 171.046 116.804 171.125 117.12C171.125 117.227 171.155 117.327 171.215 117.42C171.219 117.45 171.219 117.48 171.215 117.51L171.015 120.92C171.015 121.92 170.615 122.36 170.275 122.52L96.1246 166.35L95.9946 166.42C95.9616 166.44 95.9234 166.451 95.8846 166.45V166.45ZM40.6046 126.39C40.825 126.459 41.0339 126.56 41.2246 126.69L94.6046 157.48C95.5134 158.1 96.2112 158.983 96.6046 160.01C96.8135 160.444 96.9228 160.919 96.9246 161.4L96.7246 164.81C96.7279 165.022 96.7078 165.233 96.6646 165.44L170.045 122.08C170.365 121.93 170.525 121.51 170.525 120.9L170.725 117.53C170.691 117.439 170.664 117.345 170.645 117.25C170.567 116.964 170.471 116.683 170.355 116.41V116.41C169.993 115.489 169.367 114.695 168.555 114.13L115.265 83.22C115.082 83.092 114.873 83.0074 114.653 82.9727C114.433 82.938 114.207 82.9542 113.995 83.02L40.6046 126.39Z" fill="black"/>
<path d="M173.385 116.9L173.185 141L98.8846 185L99.0846 160.8C99.0963 160.177 98.9591 159.56 98.6846 159L172.985 115.1C173.249 115.663 173.386 116.278 173.385 116.9V116.9Z" fill="white"/>
<path d="M98.8846 185.25C98.8452 185.26 98.8039 185.26 98.7646 185.25C98.7303 185.219 98.7048 185.18 98.6907 185.136C98.6766 185.092 98.6745 185.045 98.6846 185L98.8846 160.8C98.8958 160.215 98.769 159.636 98.5146 159.11C98.4854 159.055 98.4784 158.992 98.4952 158.932C98.512 158.872 98.5512 158.821 98.6046 158.79L172.905 114.88C172.969 114.854 173.04 114.854 173.105 114.88C173.137 114.89 173.168 114.906 173.194 114.929C173.22 114.951 173.24 114.979 173.255 115.01C173.539 115.606 173.686 116.259 173.685 116.92V116.92L173.485 141.02C173.485 141.062 173.474 141.104 173.453 141.141C173.432 141.178 173.401 141.209 173.365 141.23L99.0646 185.23C99.0377 185.246 99.0078 185.256 98.9767 185.259C98.9457 185.263 98.9143 185.26 98.8846 185.25ZM99.0046 159.1C99.2298 159.638 99.3421 160.217 99.3346 160.8L99.1346 184.56L172.935 140.86L173.135 116.86C173.134 116.367 173.042 115.879 172.865 115.42L99.0046 159.1Z" fill="black"/>
<path d="M34.0846 119.9L108.485 76L170.485 111.8L96.1846 155.7L34.0846 119.9Z" fill="white"/>
<path d="M96.1846 156C96.1452 156.01 96.1039 156.01 96.0646 156L33.9546 120.2C33.9183 120.176 33.8884 120.143 33.8675 120.105C33.8466 120.066 33.8353 120.024 33.8346 119.98C33.8342 119.938 33.8451 119.896 33.8662 119.859C33.8873 119.822 33.9178 119.791 33.9546 119.77L108.355 75.86C108.393 75.8406 108.436 75.8306 108.48 75.8306C108.523 75.8306 108.566 75.8406 108.605 75.86L170.605 111.66C170.643 111.682 170.676 111.714 170.698 111.753C170.721 111.791 170.734 111.835 170.735 111.88C170.735 111.923 170.724 111.964 170.703 112.001C170.682 112.038 170.651 112.069 170.615 112.09L96.3146 156C96.2717 156.009 96.2274 156.009 96.1846 156ZM34.5846 120L96.1846 155.51L169.985 111.9L108.485 76.29L34.5846 120Z" fill="black"/>
<path d="M96.0846 155.7C96.952 156.244 97.671 156.995 98.1772 157.885C98.6833 158.775 98.9607 159.776 98.9846 160.8L98.7846 184.9C98.7846 186.8 97.4846 187.5 95.7846 186.6L33.7846 150.8C32.9171 150.256 32.1981 149.505 31.692 148.615C31.1859 147.725 30.9084 146.724 30.8846 145.7L31.0846 121.6C31.0846 119.7 32.3846 119 34.0846 119.9L96.0846 155.7Z" fill="white"/>
<path d="M97.1546 187.24C96.6311 187.223 96.1197 187.079 95.6646 186.82L33.6846 151C32.7837 150.428 32.0384 149.642 31.515 148.712C30.9916 147.782 30.7063 146.737 30.6846 145.67L30.8846 121.58C30.8479 121.18 30.9152 120.778 31.0799 120.411C31.2446 120.045 31.5011 119.728 31.8246 119.49C32.2098 119.306 32.6361 119.225 33.062 119.255C33.4879 119.284 33.8988 119.424 34.2546 119.66L96.2546 155.46C97.1554 156.032 97.9007 156.818 98.4242 157.748C98.9476 158.678 99.2329 159.723 99.2546 160.79L99.0546 184.88C99.0912 185.28 99.024 185.682 98.8593 186.049C98.6946 186.415 98.4381 186.732 98.1146 186.97C97.8266 187.149 97.4937 187.243 97.1546 187.24V187.24ZM32.6846 119.76C32.4424 119.755 32.2035 119.817 31.9946 119.94C31.7446 120.133 31.5488 120.387 31.4261 120.678C31.3035 120.969 31.2582 121.286 31.2946 121.6L31.0946 145.7C31.1157 146.679 31.38 147.638 31.8635 148.49C32.347 149.342 33.0346 150.06 33.8646 150.58L95.8646 186.38C96.1411 186.575 96.4638 186.694 96.8006 186.725C97.1374 186.757 97.4766 186.7 97.7846 186.56C98.0345 186.367 98.2303 186.113 98.353 185.822C98.4756 185.531 98.521 185.214 98.4846 184.9L98.6846 160.8C98.6634 159.821 98.3992 158.862 97.9157 158.01C97.4322 157.158 96.7445 156.44 95.9146 155.92V155.92L33.9146 120.12C33.5407 119.9 33.1181 119.776 32.6846 119.76V119.76Z" fill="black"/>
<path d="M96.0846 155.7L170.385 111.8L96.0846 155.7Z" fill="white"/>
<path d="M96.0846 156C96.0406 156.001 95.9971 155.991 95.9584 155.97C95.9198 155.949 95.8874 155.918 95.8646 155.88C95.8554 155.837 95.8554 155.793 95.8646 155.75C95.8642 155.708 95.8751 155.666 95.8962 155.629C95.9172 155.592 95.9478 155.561 95.9846 155.54L170.285 111.63C170.343 111.597 170.412 111.587 170.478 111.604C170.543 111.621 170.599 111.663 170.635 111.72C170.644 111.763 170.644 111.807 170.635 111.85C170.635 111.893 170.624 111.934 170.603 111.971C170.582 112.008 170.551 112.039 170.515 112.06L96.2146 155.97C96.1739 155.989 96.1296 156 96.0846 156V156Z" fill="black"/>
<path d="M96.1846 155.7L170.485 111.8C171.684 112.591 172.596 113.749 173.085 115.1L98.6846 159C98.203 157.673 97.3316 156.523 96.1846 155.7V155.7Z" fill="#3D3BFF"/>
<path d="M98.6846 159.25H98.6046C98.5701 159.238 98.5388 159.218 98.5129 159.192C98.487 159.166 98.4671 159.134 98.4546 159.1C97.995 157.821 97.1581 156.713 96.0546 155.92C96.0184 155.898 95.9885 155.867 95.9675 155.83C95.9465 155.794 95.9352 155.752 95.9346 155.71C95.9342 155.668 95.9451 155.626 95.9662 155.589C95.9873 155.552 96.0178 155.521 96.0546 155.5L170.355 111.59C170.394 111.568 170.439 111.557 170.485 111.557C170.53 111.557 170.575 111.568 170.615 111.59C171.861 112.415 172.811 113.617 173.325 115.02C173.344 115.074 173.343 115.132 173.323 115.185C173.303 115.238 173.264 115.282 173.215 115.31L98.8146 159.21C98.7766 159.237 98.7311 159.251 98.6846 159.25V159.25ZM96.6846 155.72C97.6391 156.496 98.3821 157.5 98.8446 158.64L172.845 114.99C172.377 113.82 171.577 112.812 170.545 112.09L96.6846 155.72Z" fill="black"/>
<path d="M93.3846 170.6L93.2846 170.1C93.2846 170.9 92.6846 171.3 91.9846 170.8L59.7846 152.2C59.4001 151.948 59.0814 151.608 58.8553 151.208C58.6291 150.808 58.502 150.359 58.4846 149.9L58.5846 150.4C58.5846 149.6 59.1846 149.2 59.8846 149.7L64.7846 152.5L69.4846 155.2L70.5846 155.8L77.6846 159.9L78.6846 160.5L82.1846 162.5L92.0846 168.2C92.8145 168.8 93.281 169.661 93.3846 170.6Z" fill="black"/>
<path d="M92.5846 171.27C92.3125 171.261 92.0501 171.166 91.8346 171L59.6846 152.42C59.2625 152.144 58.9125 151.772 58.6637 151.334C58.415 150.895 58.2747 150.404 58.2546 149.9C58.2544 149.837 58.278 149.776 58.3206 149.73C58.3632 149.684 58.4218 149.655 58.4846 149.65H58.5546C58.6402 149.514 58.7611 149.403 58.9046 149.33C59.0928 149.247 59.3006 149.219 59.5041 149.249C59.7076 149.279 59.8985 149.366 60.0546 149.5L70.6846 155.58L92.2046 168C92.6111 168.314 92.9512 168.705 93.2052 169.152C93.4593 169.598 93.6222 170.09 93.6846 170.6C93.6848 170.663 93.6612 170.724 93.6186 170.77C93.5759 170.816 93.5174 170.845 93.4546 170.85H93.3846C93.299 170.986 93.178 171.097 93.0346 171.17C92.8979 171.247 92.7412 171.282 92.5846 171.27V171.27ZM58.8246 150.48C58.9861 151.097 59.371 151.631 59.9046 151.98L92.1146 170.58C92.1971 170.661 92.3005 170.719 92.4135 170.745C92.5264 170.772 92.6444 170.766 92.7546 170.73C92.854 170.66 92.9325 170.565 92.9818 170.454C93.0311 170.343 93.0494 170.221 93.0346 170.1C93.0299 170.08 93.0299 170.06 93.0346 170.04C92.8122 169.401 92.426 168.832 91.9146 168.39L59.7646 149.92C59.5046 149.73 59.2846 149.68 59.1146 149.77C59.0152 149.84 58.9366 149.935 58.8873 150.046C58.838 150.157 58.8198 150.279 58.8346 150.4C58.837 150.427 58.8336 150.454 58.8246 150.48V150.48Z" fill="black"/>
<path d="M93.0846 167.1C93.6112 167.435 94.0497 167.891 94.3629 168.43C94.6762 168.97 94.8551 169.577 94.8846 170.2L94.7846 177.3C94.7846 178.4 93.9846 178.9 92.9846 178.3L55.5846 156.7C55.0579 156.365 54.6195 155.909 54.3062 155.37C53.9929 154.83 53.814 154.223 53.7846 153.6L53.8846 146.5C53.8846 145.4 54.6846 144.9 55.6846 145.5L93.0846 167.1ZM91.9846 171.3C91.962 170.817 91.8229 170.346 91.5792 169.928C91.3354 169.51 90.9942 169.157 90.5846 168.9L58.0846 150.1C57.2846 149.6 56.5846 150 56.5846 151C56.6071 151.483 56.7462 151.954 56.99 152.372C57.2338 152.79 57.575 153.142 57.9846 153.4L90.4846 172.2C91.3846 172.6 91.9846 172.2 91.9846 171.3V171.3Z" fill="#3D3BFF"/>
<path d="M93.7946 178.81C93.4598 178.797 93.1348 178.694 92.8546 178.51L55.4546 156.92C54.8911 156.562 54.4223 156.073 54.0881 155.495C53.7538 154.917 53.5639 154.267 53.5346 153.6L53.6346 146.5C53.5938 146.232 53.6361 145.957 53.7558 145.714C53.8754 145.47 54.0667 145.269 54.304 145.137C54.5413 145.006 54.8132 144.95 55.0832 144.977C55.3532 145.004 55.6084 145.113 55.8146 145.29L93.2046 166.88C93.7685 167.235 94.2378 167.722 94.5722 168.299C94.9066 168.875 95.0961 169.524 95.1246 170.19L95.0246 177.29C95.0469 177.555 94.9975 177.821 94.8813 178.061C94.7652 178.3 94.5867 178.504 94.3646 178.65C94.192 178.753 93.9954 178.808 93.7946 178.81ZM54.8746 145.49C54.7553 145.489 54.6379 145.52 54.5346 145.58C54.3928 145.685 54.2811 145.825 54.2109 145.986C54.1406 146.148 54.1143 146.325 54.1346 146.5L54.0346 153.6C54.0617 154.178 54.2253 154.741 54.5121 155.243C54.7989 155.746 55.2007 156.173 55.6846 156.49L93.0746 178.08C93.2138 178.19 93.3799 178.261 93.5556 178.286C93.7313 178.31 93.9105 178.288 94.0746 178.22C94.2164 178.115 94.3281 177.975 94.3983 177.814C94.4685 177.652 94.4948 177.475 94.4746 177.3L94.5746 170.2C94.5451 169.621 94.3771 169.057 94.0848 168.556C93.7925 168.055 93.3844 167.631 92.8946 167.32L55.5046 145.72C55.3163 145.593 55.1001 145.515 54.8746 145.49V145.49ZM91.1246 172.6C90.8685 172.598 90.6159 172.54 90.3846 172.43L57.8546 153.62C57.4099 153.337 57.0397 152.951 56.7751 152.495C56.5106 152.039 56.3595 151.527 56.3346 151C56.313 150.758 56.3574 150.515 56.463 150.297C56.5687 150.079 56.7317 149.893 56.9346 149.76C57.1394 149.663 57.3671 149.623 57.5928 149.646C57.8184 149.669 58.0335 149.753 58.2146 149.89L90.6846 168.68C91.1317 168.961 91.5043 169.346 91.7707 169.802C92.0371 170.259 92.1894 170.772 92.2146 171.3C92.2321 171.518 92.1946 171.736 92.1054 171.935C92.0163 172.135 91.8784 172.308 91.7046 172.44C91.5303 172.547 91.3292 172.603 91.1246 172.6V172.6ZM57.4246 150.13C57.336 150.127 57.2487 150.151 57.1746 150.2C57.052 150.291 56.9558 150.413 56.8961 150.554C56.8363 150.694 56.8151 150.848 56.8346 151C56.8613 151.44 56.9911 151.867 57.2134 152.248C57.4358 152.628 57.7445 152.951 58.1146 153.19L90.6046 172C90.734 172.068 90.8782 172.104 91.0246 172.104C91.1709 172.104 91.3151 172.068 91.4446 172C91.5493 171.914 91.6308 171.803 91.6814 171.677C91.7321 171.551 91.7504 171.415 91.7346 171.28C91.7079 170.84 91.5781 170.413 91.3558 170.032C91.1334 169.652 90.8247 169.329 90.4546 169.09L57.9546 150.3C57.7976 150.194 57.6138 150.135 57.4246 150.13V150.13Z" fill="black"/>
<path d="M76.6846 165.2L76.4846 165L74.3846 163.8L73.5846 163.4L73.3846 163.3L71.8846 162.4L71.6846 162.3L70.6846 161.7L69.6846 161.1C69.4846 161 69.3846 161.1 69.3846 161.3V163.3C69.3846 163.5 69.4846 163.6 69.6846 163.7L76.5846 167.7C76.7846 167.8 76.8846 167.7 76.8846 167.5V165.6C76.7846 165.4 76.7846 165.3 76.6846 165.2Z" fill="white"/>
<path d="M76.6846 168C76.5967 167.998 76.5108 167.974 76.4346 167.93L69.5146 163.93C69.39 163.881 69.2831 163.796 69.2081 163.685C69.1331 163.575 69.0935 163.444 69.0946 163.31V161.31C69.0878 161.227 69.1027 161.144 69.1378 161.069C69.1728 160.993 69.2269 160.928 69.2946 160.88C69.3638 160.838 69.4434 160.815 69.5246 160.815C69.6058 160.815 69.6854 160.838 69.7546 160.88L73.6546 163.18L74.4546 163.58L76.5646 164.78H76.6246L76.7146 164.88C76.7583 164.888 76.7984 164.91 76.8289 164.942C76.8595 164.975 76.879 165.016 76.8846 165.06C76.9311 165.128 76.9681 165.202 76.9946 165.28L77.0646 165.45C77.0748 165.486 77.0748 165.524 77.0646 165.56V167.46C77.0713 167.543 77.0564 167.626 77.0214 167.701C76.9863 167.777 76.9323 167.842 76.8646 167.89C76.8165 167.943 76.754 167.982 76.6846 168V168ZM69.6846 161.36V163.3C69.6846 163.36 69.6846 163.4 69.8446 163.48L76.6846 167.48V165.7L76.6146 165.54C76.6146 165.46 76.6146 165.44 76.5546 165.42L76.3846 165.24L74.2646 164L73.2646 163.5L69.6846 161.36Z" fill="black"/>
<path d="M75.6846 165.3L75.4846 165.1L73.9846 164.2L73.4846 163.9L73.3846 163.8L72.2846 163.2L72.0846 163.1L71.3846 162.7L70.5846 162.3C70.4846 162.2 70.3846 162.3 70.3846 162.4V163.2C70.3846 163.3 70.4846 163.4 70.5846 163.5L75.4846 166.4C75.5846 166.5 75.6846 166.4 75.6846 166.3V165.6C75.7846 165.4 75.6846 165.3 75.6846 165.3Z" fill="white"/>
<path d="M75.5746 166.69C75.4739 166.689 75.3775 166.649 75.3046 166.58L70.4546 163.71C70.3676 163.653 70.2939 163.578 70.2387 163.49C70.1835 163.402 70.1479 163.303 70.1346 163.2V162.4C70.1324 162.324 70.1532 162.249 70.1942 162.185C70.2352 162.12 70.2946 162.07 70.3646 162.04C70.4236 162.016 70.4881 162.007 70.5513 162.016C70.6146 162.025 70.6744 162.05 70.7246 162.09L71.4946 162.48L73.4946 163.58H73.5546L73.6546 163.68L75.6546 164.84L75.7846 164.97C75.8345 164.984 75.8793 165.012 75.9132 165.051C75.947 165.09 75.9684 165.139 75.9746 165.19C76.0044 165.256 76.0198 165.328 76.0198 165.4C76.0198 165.472 76.0044 165.544 75.9746 165.61V166.26C75.9761 166.337 75.9552 166.413 75.9144 166.479C75.8735 166.545 75.8146 166.597 75.7446 166.63L75.5746 166.69ZM70.6846 162.6V163.2L70.8146 163.32L75.4846 166.08V165.6C75.4743 165.564 75.4743 165.526 75.4846 165.49C75.4782 165.476 75.4749 165.461 75.4749 165.445C75.4749 165.43 75.4782 165.414 75.4846 165.4L75.3546 165.28L73.3546 164.12L73.2346 164L70.6846 162.6Z" fill="black"/>
<path d="M164.485 116.8L101.985 153.1C101.192 153.495 100.32 153.7 99.4346 153.7C98.5496 153.7 97.6767 153.495 96.8846 153.1L36.7846 118.4L35.5846 117.7L102.585 78.1L103.785 78.8L164.485 113.8C165.885 114.6 165.885 115.9 164.485 116.8Z" fill="black"/>
<path d="M99.4346 154C98.5056 154.019 97.5869 153.803 96.7646 153.37L35.4546 117.97C35.4183 117.946 35.3884 117.913 35.3675 117.875C35.3466 117.836 35.3353 117.794 35.3346 117.75C35.3342 117.708 35.3451 117.666 35.3662 117.629C35.3873 117.592 35.4178 117.561 35.4546 117.54L102.455 77.93C102.495 77.9105 102.54 77.9004 102.585 77.9004C102.63 77.9004 102.674 77.9105 102.715 77.93L103.915 78.63L164.605 113.63C164.929 113.774 165.21 114.002 165.417 114.29C165.624 114.578 165.751 114.917 165.785 115.27C165.764 115.645 165.645 116.007 165.439 116.322C165.234 116.636 164.949 116.89 164.615 117.06L102.115 153.36C101.289 153.795 100.367 154.015 99.4346 154ZM36.0746 117.7L36.9146 118.18L97.0146 152.88C97.7694 153.25 98.5989 153.442 99.4396 153.442C100.28 153.442 101.11 153.25 101.865 152.88L164.355 116.59C164.61 116.461 164.829 116.27 164.992 116.034C165.154 115.798 165.255 115.525 165.285 115.24C165.251 114.974 165.148 114.722 164.987 114.508C164.825 114.294 164.611 114.126 164.365 114.02L102.585 78.39L36.0746 117.7Z" fill="black"/>
<path d="M125.785 131.1L167.485 106.6C167.522 106.958 167.468 107.321 167.328 107.653C167.189 107.985 166.967 108.276 166.685 108.5L124.985 133C125.258 132.769 125.474 132.476 125.613 132.146C125.752 131.816 125.811 131.457 125.785 131.1V131.1Z" fill="white"/>
<path d="M124.985 133.25C124.931 133.252 124.879 133.237 124.834 133.207C124.79 133.177 124.757 133.134 124.739 133.084C124.721 133.034 124.72 132.979 124.735 132.928C124.75 132.877 124.782 132.832 124.825 132.8C125.071 132.594 125.263 132.332 125.387 132.037C125.511 131.741 125.561 131.42 125.535 131.1C125.535 131.056 125.547 131.014 125.568 130.975C125.588 130.937 125.618 130.904 125.655 130.88L167.355 106.38C167.393 106.361 167.436 106.351 167.48 106.351C167.523 106.351 167.566 106.361 167.605 106.38C167.643 106.402 167.676 106.434 167.698 106.473C167.721 106.511 167.734 106.555 167.735 106.6C167.774 107.001 167.71 107.405 167.549 107.775C167.388 108.144 167.135 108.466 166.815 108.71L125.115 133.22C125.074 133.239 125.03 133.25 124.985 133.25V133.25ZM125.985 131.25C125.979 131.591 125.918 131.929 125.805 132.25L166.505 108.33C166.697 108.186 166.856 108.001 166.968 107.788C167.081 107.576 167.144 107.34 167.155 107.1L125.985 131.25Z" fill="black"/>
<path d="M59.8846 20.4L101.585 8.39998C101.918 8.23432 102.292 8.16526 102.663 8.2006C103.034 8.23594 103.388 8.37427 103.685 8.59998L61.9846 20.6C61.6879 20.3743 61.3341 20.2359 60.9631 20.2006C60.592 20.1653 60.2185 20.2343 59.8846 20.4Z" fill="white"/>
<path d="M61.9846 20.85C61.9424 20.8645 61.8967 20.8645 61.8546 20.85C61.4933 20.6022 61.0624 20.4761 60.6246 20.49L59.9546 20.68C59.8949 20.6991 59.8301 20.6941 59.774 20.6661C59.718 20.6381 59.6751 20.5892 59.6546 20.53C59.6414 20.5019 59.634 20.4713 59.633 20.4403C59.6319 20.4093 59.6371 20.3783 59.6483 20.3493C59.6596 20.3204 59.6765 20.294 59.6982 20.2717C59.7199 20.2495 59.7459 20.2319 59.7746 20.22C60.0114 20.0968 60.2691 20.0188 60.5346 19.99L101.485 8.16998C101.857 7.99372 102.27 7.92113 102.68 7.95985C103.09 7.99857 103.482 8.14716 103.815 8.38998C103.856 8.41348 103.89 8.44888 103.911 8.49164C103.933 8.5344 103.941 8.58257 103.935 8.62998C103.925 8.67757 103.904 8.72194 103.872 8.75876C103.841 8.79557 103.8 8.82356 103.755 8.83998L62.0546 20.84L61.9846 20.85ZM61.6646 20.15C61.7885 20.2019 61.9087 20.262 62.0246 20.33L103.025 8.53998C102.821 8.46385 102.604 8.43076 102.387 8.44281C102.17 8.45486 101.958 8.51178 101.765 8.60998C101.765 8.60998 101.765 8.60998 101.705 8.60998L61.6646 20.15Z" fill="black"/>
<path d="M61.9846 20.6L103.685 8.59998L164.785 43.9L123.085 55.9L61.9846 20.6Z" fill="white"/>
<path d="M123.085 56.15C123.045 56.1602 123.004 56.1602 122.965 56.15L61.8546 20.82C61.8138 20.7931 61.7811 20.7556 61.76 20.7116C61.7389 20.6676 61.7301 20.6186 61.7346 20.57C61.7406 20.5212 61.7609 20.4752 61.7929 20.4378C61.8249 20.4005 61.8672 20.3734 61.9146 20.36L103.615 8.36C103.675 8.335 103.744 8.335 103.805 8.36L164.905 43.66C164.948 43.6837 164.984 43.7198 165.007 43.7637C165.03 43.8076 165.039 43.8574 165.034 43.9068C165.029 43.9561 165.009 44.0027 164.977 44.0407C164.945 44.0787 164.902 44.1063 164.855 44.12L123.155 56.12L123.085 56.15ZM62.6146 20.68L123.115 55.68L164.115 43.87L103.685 8.87L62.6146 20.68Z" fill="black"/>
<path d="M123.085 55.9C123.926 56.4481 124.626 57.1861 125.13 58.0546C125.634 58.9231 125.927 59.8977 125.985 60.9L125.785 131.1C125.785 133 124.485 133.7 122.885 132.8L61.7846 97.5C60.9434 96.9519 60.2427 96.2139 59.739 95.3455C59.2353 94.477 58.9426 93.5023 58.8846 92.5L59.0846 22.3C59.0846 20.4 60.3846 19.7 61.9846 20.6L123.085 55.9Z" fill="white"/>
<path d="M124.185 133.44C123.683 133.423 123.194 133.279 122.765 133.02L61.6846 97.72C60.8125 97.1437 60.0871 96.3716 59.5662 95.4653C59.0454 94.559 58.7435 93.5436 58.6846 92.5L58.8846 22.3C58.8467 21.8909 58.9195 21.4792 59.0954 21.1079C59.2714 20.7367 59.5439 20.4196 59.8846 20.19C60.2525 20.0163 60.6596 19.9425 61.065 19.9758C61.4704 20.0092 61.86 20.1485 62.1946 20.38L123.305 55.68C124.174 56.2585 124.898 57.0312 125.419 57.937C125.939 58.8428 126.243 59.8571 126.305 60.9L126.105 131.1C126.142 131.509 126.07 131.921 125.894 132.292C125.718 132.663 125.445 132.98 125.105 133.21C124.824 133.367 124.506 133.446 124.185 133.44V133.44ZM60.6846 20.46C60.4609 20.456 60.2401 20.5112 60.0446 20.62C59.7904 20.8141 59.5913 21.0712 59.4668 21.3658C59.3423 21.6604 59.2967 21.9824 59.3346 22.3L59.1346 92.5C59.19 93.4579 59.4694 94.3895 59.9506 95.2197C60.4317 96.0499 61.101 96.7556 61.9046 97.28L123.015 132.58C123.27 132.769 123.571 132.888 123.888 132.923C124.204 132.958 124.524 132.909 124.815 132.78C125.072 132.588 125.274 132.332 125.401 132.037C125.527 131.742 125.573 131.419 125.535 131.1L125.735 60.9C125.679 59.942 125.4 59.0104 124.919 58.1802C124.437 57.35 123.768 56.6443 122.965 56.12L61.8546 20.82C61.5021 20.6013 61.0991 20.4773 60.6846 20.46V20.46Z" fill="black"/>
<path d="M123.085 55.9L164.785 43.9L123.085 55.9Z" fill="white"/>
<path d="M123.085 56.15C123.03 56.15 122.978 56.1325 122.935 56.1C122.891 56.0676 122.86 56.022 122.845 55.97C122.84 55.9469 122.84 55.9231 122.845 55.9C122.845 55.8459 122.862 55.7933 122.895 55.75C122.927 55.7068 122.973 55.6752 123.025 55.66L164.725 43.66C164.788 43.6415 164.857 43.6489 164.915 43.6808C164.973 43.7127 165.016 43.7664 165.035 43.83C165.039 43.8531 165.039 43.8769 165.035 43.9C165.035 43.9541 165.017 44.0067 164.985 44.05C164.952 44.0933 164.907 44.1249 164.855 44.14L123.155 56.14L123.085 56.15Z" fill="black"/>
<path d="M123.085 55.9L164.785 43.9C165.978 44.6292 166.866 45.7661 167.285 47.1L125.585 59.1C125.131 57.7845 124.251 56.6581 123.085 55.9Z" fill="white"/>
<path d="M125.585 59.35C125.535 59.3493 125.486 59.3338 125.445 59.3052C125.404 59.2767 125.373 59.2366 125.355 59.19C124.927 57.9262 124.085 56.8442 122.965 56.12C122.921 56.0952 122.886 56.0585 122.863 56.0141C122.84 55.9698 122.83 55.9197 122.835 55.87C122.841 55.8212 122.861 55.7752 122.893 55.7378C122.925 55.7005 122.967 55.6734 123.015 55.66L164.715 43.66C164.775 43.635 164.844 43.635 164.905 43.66C166.156 44.4169 167.087 45.6046 167.525 47C167.543 47.0636 167.536 47.1321 167.504 47.1902C167.472 47.2483 167.418 47.2914 167.355 47.31L125.655 59.31L125.585 59.35ZM123.685 56C124.579 56.7513 125.268 57.7185 125.685 58.81L166.915 46.94C166.497 45.8044 165.721 44.8356 164.705 44.18L123.685 56Z" fill="black"/>
<path d="M167.685 48.9L167.485 106.6L125.785 131.1L125.985 60.9C125.983 60.2877 125.881 59.6798 125.685 59.1L167.385 47.1C167.533 47.6909 167.633 48.2929 167.685 48.9Z" fill="white"/>
<path d="M125.785 131.35C125.745 131.36 125.704 131.36 125.665 131.35C125.626 131.328 125.593 131.296 125.571 131.257C125.548 131.219 125.535 131.175 125.535 131.13L125.735 60.93C125.731 60.3448 125.633 59.764 125.445 59.21C125.419 59.1458 125.419 59.0742 125.445 59.01C125.477 58.9523 125.531 58.9094 125.595 58.89L167.295 46.89C167.326 46.8756 167.36 46.8682 167.395 46.8682C167.429 46.8682 167.463 46.8756 167.495 46.89C167.525 46.9085 167.552 46.9332 167.572 46.9625C167.593 46.9917 167.607 47.0249 167.615 47.06C167.615 47.26 167.685 47.45 167.735 47.65C167.841 48.0587 167.901 48.4779 167.915 48.9V48.9L167.715 106.6C167.714 106.644 167.703 106.686 167.682 106.725C167.661 106.763 167.631 106.796 167.595 106.82L125.895 131.32C125.86 131.337 125.823 131.347 125.785 131.35V131.35ZM125.995 59.27C126.152 59.799 126.233 60.348 126.235 60.9L126.035 130.66L167.235 106.46L167.435 48.9C167.421 48.5148 167.364 48.1324 167.265 47.76C167.265 47.64 167.215 47.53 167.185 47.42L125.995 59.27Z" fill="black"/>
<path d="M37.8846 111.7L104.385 73L37.8846 111.7Z" fill="white"/>
<path d="M37.8846 112C37.8406 112.001 37.7971 111.991 37.7585 111.97C37.7198 111.949 37.6874 111.918 37.6646 111.88C37.6554 111.837 37.6554 111.793 37.6646 111.75C37.6634 111.706 37.674 111.663 37.695 111.624C37.7161 111.585 37.747 111.553 37.7846 111.53L104.285 72.83C104.343 72.7967 104.412 72.7875 104.478 72.8043C104.543 72.8211 104.599 72.8626 104.635 72.92C104.644 72.9629 104.644 73.0072 104.635 73.05C104.636 73.094 104.625 73.1375 104.604 73.1761C104.583 73.2148 104.552 73.2472 104.515 73.27L38.1346 111.84C38.1104 111.878 38.0761 111.909 38.0354 111.928C37.9947 111.948 37.9494 111.955 37.9046 111.95L37.8846 112Z" fill="black"/>
<path d="M47.5846 117.3L37.8846 111.7C36.9004 111.037 36.1348 110.098 35.6846 109C35.489 108.524 35.3871 108.015 35.3846 107.5L35.5846 45.5C35.5622 45.1965 35.6143 44.8921 35.7363 44.6133C35.8583 44.3344 36.0465 44.0896 36.2846 43.9L66.1846 26.3C65.9465 26.4896 65.7583 26.7344 65.6363 27.0133C65.5143 27.2921 65.4622 27.5965 65.4846 27.9L96.0846 145.4L47.5846 117.3Z" fill="#3D3BFF"/>
<path d="M96.0846 145.65C96.0417 145.659 95.9974 145.659 95.9546 145.65L47.4546 117.55L37.7646 111.95C36.7302 111.262 35.9257 110.28 35.4546 109.13C35.2479 108.622 35.1394 108.079 35.1346 107.53L35.3346 45.53C35.3106 45.1874 35.371 44.8442 35.5104 44.5304C35.6499 44.2165 35.8642 43.9417 36.1346 43.73L66.0546 26.08C66.1115 26.0509 66.177 26.0429 66.2392 26.0576C66.3015 26.0722 66.3566 26.1085 66.3946 26.16C66.4302 26.2135 66.4439 26.2787 66.4327 26.342C66.4215 26.4053 66.3864 26.4619 66.3346 26.5C66.1325 26.6639 65.9725 26.8738 65.8682 27.1121C65.7638 27.3504 65.718 27.6103 65.7346 27.87L96.3246 145.34C96.338 145.387 96.3366 145.438 96.3205 145.484C96.3044 145.531 96.2744 145.571 96.2346 145.6C96.1907 145.631 96.1384 145.649 96.0846 145.65V145.65ZM65.3546 27.08L36.4146 44.08C36.214 44.2464 36.0566 44.4587 35.9556 44.699C35.8546 44.9392 35.8131 45.2003 35.8346 45.46L35.6346 107.46C35.6356 107.944 35.7307 108.423 35.9146 108.87C36.3404 109.915 37.068 110.81 38.0046 111.44L47.7046 117.04L95.7046 144.84L65.2446 28C65.2399 27.9803 65.2399 27.9597 65.2446 27.94C65.2307 27.6491 65.2679 27.358 65.3546 27.08V27.08Z" fill="black"/>
<path d="M98.8846 148.6L128.785 131C128.826 131.369 128.763 131.742 128.604 132.078C128.445 132.413 128.196 132.698 127.885 132.9L97.9846 150.5C98.2914 150.293 98.5368 150.008 98.6952 149.673C98.8535 149.339 98.919 148.968 98.8846 148.6Z" fill="white"/>
<path d="M97.9846 150.75C97.9406 150.751 97.8971 150.741 97.8585 150.72C97.8198 150.698 97.7874 150.668 97.7646 150.63C97.7318 150.573 97.7228 150.505 97.7397 150.441C97.7565 150.378 97.7978 150.323 97.8546 150.29C98.1354 150.112 98.3617 149.86 98.5082 149.562C98.6547 149.264 98.7157 148.931 98.6846 148.6C98.6853 148.556 98.6966 148.514 98.7175 148.475C98.7384 148.437 98.7683 148.404 98.8046 148.38L128.705 130.78C128.743 130.761 128.786 130.751 128.83 130.751C128.873 130.751 128.916 130.761 128.955 130.78C128.993 130.802 129.026 130.834 129.048 130.873C129.071 130.911 129.084 130.955 129.085 131C129.136 131.412 129.069 131.83 128.892 132.205C128.715 132.58 128.435 132.898 128.085 133.12L98.2046 150.72C98.1375 150.757 98.0591 150.768 97.9846 150.75V150.75ZM99.1346 148.75C99.1243 149.053 99.0704 149.353 98.9746 149.64L127.755 132.69C127.972 132.566 128.155 132.389 128.286 132.176C128.417 131.963 128.492 131.72 128.505 131.47L99.1346 148.75Z" fill="black"/>
<path d="M31.9846 36.3L61.8846 18.7C62.2185 18.5344 62.592 18.4653 62.9631 18.5006C63.3341 18.536 63.6879 18.6743 63.9846 18.9L34.0846 36.5C33.7879 36.2743 33.4341 36.136 33.0631 36.1006C32.692 36.0653 32.3185 36.1344 31.9846 36.3Z" fill="white"/>
<path d="M34.0846 36.75C34.0424 36.7645 33.9967 36.7645 33.9546 36.75C33.6917 36.551 33.3792 36.4281 33.0512 36.3946C32.7232 36.3611 32.3923 36.4183 32.0946 36.56C32.0372 36.5889 31.971 36.5946 31.9096 36.576C31.8481 36.5574 31.7962 36.5159 31.7646 36.46C31.7365 36.4019 31.7301 36.3357 31.7466 36.2733C31.7631 36.211 31.8014 36.1566 31.8546 36.12L61.7546 18.52C62.13 18.3376 62.5479 18.2608 62.9637 18.2977C63.3794 18.3347 63.7773 18.4842 64.1146 18.73C64.1514 18.7513 64.1819 18.7819 64.203 18.8188C64.224 18.8557 64.2349 18.8975 64.2346 18.94C64.2338 18.9837 64.2225 19.0265 64.2016 19.0648C64.1807 19.1031 64.1509 19.1358 64.1146 19.16L34.2146 36.76C34.171 36.7659 34.1267 36.7625 34.0846 36.75ZM33.1946 35.88C33.508 35.938 33.8091 36.0496 34.0846 36.21L63.4746 18.91C63.2467 18.8009 62.9972 18.7442 62.7446 18.7442C62.4919 18.7442 62.2425 18.8009 62.0146 18.91L33.1946 35.88Z" fill="black"/>
<path d="M126.285 59.1C125.911 58.125 125.248 57.2875 124.385 56.7L70.9846 25.9C70.7673 25.7524 70.5186 25.6575 70.2582 25.6227C69.9978 25.588 69.7329 25.6145 69.4846 25.7L39.4846 43.4C39.7283 43.2897 39.998 43.25 40.2632 43.2853C40.5284 43.3207 40.7783 43.4297 40.9846 43.6L94.3846 74.4C95.2478 74.9875 95.9108 75.825 96.2846 76.8C96.4784 77.2062 96.5808 77.65 96.5846 78.1L96.3846 139.4C96.3846 140.1 96.1846 140.6 95.7846 140.8L125.685 123.2C126.085 123 126.285 122.5 126.285 121.8L126.485 60.5C126.467 60.0276 126.4 59.5584 126.285 59.1V59.1Z" fill="white"/>
<path d="M95.7846 141.05C95.7398 141.049 95.696 141.037 95.6575 141.014C95.6189 140.991 95.5869 140.959 95.5646 140.92C95.5365 140.862 95.5301 140.796 95.5466 140.733C95.5631 140.671 95.6014 140.617 95.6546 140.58L95.7446 140.53C95.8926 140.385 96.0049 140.207 96.0726 140.011C96.1402 139.815 96.1615 139.606 96.1346 139.4L96.3346 78.1C96.327 77.689 96.2351 77.284 96.0646 76.91C95.7041 75.98 95.0738 75.179 94.2546 74.61L40.8546 43.82C40.684 43.6726 40.4757 43.5758 40.2531 43.5405C40.0304 43.5051 39.8024 43.5327 39.5946 43.62C39.5372 43.6489 39.471 43.6546 39.4096 43.636C39.3481 43.6174 39.2962 43.5759 39.2646 43.52C39.2365 43.4619 39.2301 43.3957 39.2466 43.3334C39.2631 43.271 39.3014 43.2166 39.3546 43.18L69.3546 25.48C69.6391 25.3696 69.9461 25.3302 70.2493 25.365C70.5524 25.3999 70.8425 25.508 71.0946 25.68L124.515 56.48C125.421 57.1023 126.118 57.9842 126.515 59.01V59.22C126.61 59.6269 126.663 60.0423 126.675 60.46L126.475 121.76C126.475 122.76 126.075 123.22 125.735 123.38L96.0146 141L95.8946 141.07C95.8567 141.074 95.8186 141.067 95.7846 141.05V141.05ZM40.5046 43.05C40.725 43.1188 40.9339 43.2199 41.1246 43.35L94.5146 74.18C95.4212 74.8023 96.1184 75.6842 96.5146 76.71C96.7235 77.1437 96.8328 77.6186 96.8346 78.1L96.6846 139.4C96.6873 139.618 96.6672 139.836 96.6246 140.05L125.625 122.98C125.945 122.83 126.105 122.41 126.105 121.8L126.305 60.5C126.295 60.1158 126.244 59.7337 126.155 59.36V59.17C125.793 58.2573 125.17 57.4713 124.365 56.91L70.8646 26.12C70.6822 25.992 70.4729 25.9074 70.2528 25.8727C70.0326 25.838 69.8075 25.8542 69.5946 25.92L40.5046 43.05Z" fill="black"/>
<path d="M96.5846 78.1L96.3846 139.4C96.3846 140.8 95.3846 141.3 94.1846 140.6L40.7846 109.8C40.1588 109.393 39.635 108.848 39.2536 108.206C38.8721 107.565 38.6432 106.844 38.5846 106.1L38.6846 86.1V44.8C38.6846 43.4 39.6846 42.9 40.8846 43.6L48.9846 48.3L56.7846 52.8L58.5846 53.8L70.2846 60.6L71.8846 61.5L77.6846 64.9L94.1846 74.4C94.8794 74.7452 95.4687 75.2707 95.8909 75.9216C96.3131 76.5725 96.5527 77.3248 96.5846 78.1Z" fill="black"/>
<path d="M95.1946 141.17C94.7907 141.154 94.398 141.033 94.0546 140.82L40.6846 110C40.0202 109.57 39.4643 108.993 39.0601 108.313C38.6559 107.633 38.4144 106.869 38.3546 106.08L38.4546 86.08V44.8C38.4261 44.4921 38.4807 44.1822 38.6126 43.9026C38.7445 43.623 38.9489 43.3838 39.2046 43.21C39.4977 43.0754 39.8211 43.0203 40.1423 43.0501C40.4635 43.08 40.7712 43.1937 41.0346 43.38L56.9346 52.58L58.7246 53.58L77.8346 64.68L94.3246 74.18C95.0615 74.5433 95.6861 75.0998 96.1316 75.7901C96.5772 76.4805 96.827 77.2788 96.8546 78.1L96.6846 139.4C96.7119 139.715 96.6517 140.031 96.5105 140.313C96.3693 140.595 96.1526 140.833 95.8846 141C95.6741 141.118 95.4357 141.176 95.1946 141.17V141.17ZM39.8746 43.54C39.7202 43.5322 39.5671 43.5705 39.4346 43.65C39.2565 43.7799 39.1164 43.955 39.0285 44.1571C38.9406 44.3592 38.9082 44.5811 38.9346 44.8V86.1L38.8346 106.1C38.8946 106.8 39.1131 107.477 39.4734 108.08C39.8338 108.683 40.3266 109.196 40.9146 109.58L94.3046 140.38C94.4946 140.521 94.7177 140.61 94.9523 140.64C95.187 140.67 95.4254 140.639 95.6446 140.55C95.8192 140.417 95.9563 140.242 96.0422 140.04C96.1282 139.838 96.16 139.618 96.1346 139.4L96.3346 78.1C96.3028 77.3736 96.0774 76.6688 95.6818 76.0588C95.2862 75.4487 94.7348 74.9554 94.0846 74.63L77.5646 65.12L71.7546 61.72L70.1646 60.82L58.4546 54L56.6846 53L40.7746 43.8C40.5042 43.6322 40.1928 43.5422 39.8746 43.54V43.54Z" fill="black"/>
<path d="M128.985 59.8L128.785 131L98.8846 148.6L99.0846 77.4C99.0963 76.7767 98.9591 76.1597 98.6846 75.6L128.585 58C128.859 58.5597 128.996 59.1767 128.985 59.8Z" fill="white"/>
<path d="M98.8846 148.85C98.8452 148.86 98.8039 148.86 98.7646 148.85C98.7258 148.828 98.6934 148.796 98.6707 148.757C98.6479 148.719 98.6355 148.675 98.6346 148.63L98.8346 77.43C98.8458 76.8454 98.719 76.2664 98.4646 75.74C98.4348 75.6838 98.4276 75.6185 98.4443 75.5572C98.461 75.4959 98.5004 75.4432 98.5546 75.41L128.455 57.81C128.519 57.7844 128.59 57.7844 128.655 57.81C128.687 57.8197 128.718 57.8363 128.744 57.8587C128.77 57.8812 128.79 57.9089 128.805 57.94C129.099 58.533 129.246 59.188 129.235 59.85V59.85L129.035 131.05C129.034 131.094 129.023 131.136 129.002 131.175C128.981 131.213 128.951 131.246 128.915 131.27L99.0146 148.87C98.9703 148.873 98.926 148.866 98.8846 148.85V148.85ZM99.0046 75.7C99.2298 76.2381 99.3421 76.8167 99.3346 77.4L99.1346 148.16L128.535 130.86L128.735 59.8C128.746 59.3074 128.657 58.8176 128.475 58.36L99.0046 75.7Z" fill="black"/>
<path d="M125.985 54.7L96.0846 72.3L34.0846 36.5L63.9846 18.9L125.985 54.7Z" fill="white"/>
<path d="M96.0846 72.55C96.0417 72.5592 95.9974 72.5592 95.9546 72.55L33.9546 36.75C33.9174 36.7266 33.8867 36.6941 33.8655 36.6556C33.8443 36.6172 33.8331 36.5739 33.8331 36.53C33.8331 36.486 33.8443 36.4428 33.8655 36.4043C33.8867 36.3659 33.9174 36.3334 33.9546 36.31L63.8546 18.71C63.8934 18.6906 63.9362 18.6805 63.9796 18.6805C64.023 18.6805 64.0657 18.6906 64.1046 18.71L126.105 54.51C126.143 54.5324 126.176 54.5644 126.198 54.6029C126.221 54.6415 126.234 54.6852 126.235 54.73C126.234 54.7736 126.223 54.8164 126.202 54.8548C126.181 54.8931 126.151 54.9258 126.115 54.95L96.2146 72.55C96.1717 72.5592 96.1274 72.5592 96.0846 72.55V72.55ZM34.5846 36.55L96.0846 72L125.485 54.7L63.9846 19.19L34.5846 36.55Z" fill="black"/>
<path d="M128.585 58L98.6846 75.6C98.1685 74.2642 97.2626 73.1144 96.0846 72.3L125.985 54.7C126.615 55.0502 127.17 55.5224 127.616 56.0889C128.062 56.6554 128.392 57.3051 128.585 58Z" fill="white"/>
<path d="M98.6846 75.85H98.6046C98.5701 75.8375 98.5388 75.8176 98.5129 75.7917C98.4869 75.7658 98.467 75.7344 98.4546 75.7C97.9523 74.417 97.0827 73.3108 95.9546 72.52C95.9184 72.498 95.8885 72.4672 95.8675 72.4305C95.8465 72.3937 95.8352 72.3523 95.8346 72.31C95.8353 72.2663 95.8466 72.2235 95.8675 72.1852C95.8884 72.1469 95.9183 72.1142 95.9546 72.09L125.855 54.49C125.891 54.4698 125.933 54.4593 125.975 54.4593C126.017 54.4593 126.058 54.4698 126.095 54.49C126.757 54.8541 127.339 55.3469 127.808 55.9394C128.277 56.5319 128.622 57.212 128.825 57.94C128.838 57.9938 128.835 58.0505 128.815 58.1023C128.796 58.1542 128.76 58.1988 128.715 58.23L98.8146 75.83C98.7732 75.8459 98.7288 75.8527 98.6846 75.85ZM96.5446 72.32C97.5268 73.0924 98.3031 74.0954 98.8046 75.24L128.285 57.88C127.898 56.673 127.083 55.6488 125.995 55L96.5446 72.32Z" fill="black"/>
<path d="M96.0846 72.3C96.952 72.8439 97.671 73.5945 98.1772 74.4846C98.6833 75.3747 98.9607 76.3764 98.9846 77.4L98.7846 148.6C98.7846 150.5 97.4846 151.2 95.7846 150.3L33.7846 114.5C32.9171 113.956 32.1981 113.205 31.692 112.315C31.1859 111.425 30.9084 110.424 30.8846 109.4L31.0846 38.2C31.0846 36.3 32.3846 35.6 34.0846 36.5L96.0846 72.3ZM94.3846 141.4L94.5846 79.4C94.5414 78.5357 94.2919 77.6944 93.857 76.9463C93.422 76.1982 92.8143 75.5651 92.0846 75.1L38.1846 44C36.7846 43.2 35.6846 43.8 35.6846 45.4L35.4846 107.4C35.5278 108.264 35.7772 109.106 36.2122 109.854C36.6471 110.602 37.2549 111.235 37.9846 111.7L91.8846 142.8C93.2846 143.6 94.3846 143 94.3846 141.4V141.4Z" fill="white"/>
<path d="M97.1546 150.94C96.6311 150.923 96.1197 150.779 95.6646 150.52L33.6646 114.72C32.7637 114.148 32.0184 113.362 31.495 112.432C30.9716 111.502 30.6863 110.457 30.6646 109.39L30.8646 38.2C30.8279 37.8002 30.8952 37.3976 31.0599 37.0315C31.2246 36.6653 31.4811 36.3479 31.8046 36.11C32.1898 35.9259 32.6161 35.8448 33.042 35.8746C33.4679 35.9044 33.8788 36.0441 34.2346 36.28L96.2346 72.08C97.1354 72.6521 97.8807 73.4382 98.4041 74.3681C98.9276 75.2981 99.2129 76.3431 99.2346 77.41L99.0346 148.6C99.0732 149 99.0069 149.403 98.842 149.77C98.6772 150.136 98.4195 150.454 98.0946 150.69C97.8103 150.859 97.485 150.945 97.1546 150.94V150.94ZM32.6846 36.36C32.4423 36.355 32.2035 36.4174 31.9946 36.54C31.7446 36.7328 31.5488 36.987 31.4261 37.2779C31.3035 37.5688 31.2582 37.8864 31.2946 38.2L31.0946 109.4C31.1166 110.379 31.3812 111.337 31.8646 112.189C32.3481 113.041 33.0352 113.759 33.8646 114.28L95.8646 150.08C96.1411 150.275 96.4638 150.394 96.8006 150.425C97.1374 150.457 97.4766 150.4 97.7846 150.26C98.0345 150.067 98.2303 149.813 98.353 149.522C98.4756 149.231 98.521 148.914 98.4846 148.6L98.6846 77.4C98.6625 76.4209 98.3979 75.4626 97.9145 74.611C97.4311 73.7593 96.7439 73.0408 95.9146 72.52V72.52L33.9146 36.72C33.5407 36.5 33.118 36.3763 32.6846 36.36V36.36ZM92.9946 143.36C92.5459 143.343 92.109 143.212 91.7246 142.98L37.8146 111.88C37.048 111.391 36.41 110.726 35.954 109.939C35.4981 109.153 35.2377 108.268 35.1946 107.36L35.3946 45.36C35.3628 45.0121 35.4227 44.6619 35.5683 44.3444C35.7139 44.0268 35.9402 43.7529 36.2246 43.55C36.5451 43.4024 36.8989 43.3423 37.2502 43.3757C37.6014 43.409 37.9376 43.5347 38.2246 43.74L92.1246 74.84C92.8941 75.3264 93.535 75.9912 93.9929 76.7781C94.4507 77.5649 94.712 78.4506 94.7546 79.36L94.5546 141.36C94.5864 141.708 94.5265 142.058 94.3808 142.376C94.2352 142.693 94.0089 142.967 93.7246 143.17C93.5162 143.301 93.2796 143.38 93.0346 143.4L92.9946 143.36ZM36.9946 43.86C36.8126 43.8552 36.6328 43.9002 36.4746 43.99C36.2663 44.1475 36.1031 44.357 36.0013 44.5974C35.8996 44.8379 35.8627 45.1009 35.8946 45.36L35.6946 107.36C35.7383 108.179 35.976 108.976 36.388 109.686C36.8001 110.395 37.3747 110.996 38.0646 111.44L91.9746 142.54C92.1915 142.705 92.4483 142.81 92.7189 142.843C92.9895 142.877 93.264 142.837 93.5146 142.73C93.7228 142.572 93.886 142.363 93.9878 142.123C94.0896 141.882 94.1264 141.619 94.0946 141.36L94.2946 79.36C94.2484 78.5414 94.0097 77.7453 93.5979 77.0363C93.1861 76.3274 92.6128 75.7256 91.9246 75.28L38.0246 44.18C37.7229 44.006 37.3827 43.9098 37.0346 43.9L36.9946 43.86Z" fill="black"/>
<path d="M47.7846 87.2C47.8846 87.3 47.8846 87.3 47.9846 87.3C48.0846 87.3 48.0846 87.2 48.0846 87.1V85.7C48.0911 85.6457 48.0855 85.5907 48.0682 85.5388C48.051 85.4869 48.0224 85.4395 47.9846 85.4L45.7846 82.8L47.9846 82.7C48.0846 82.7 48.0846 82.6 48.0846 82.5V81.1C48.0911 81.0457 48.0855 80.9907 48.0682 80.9388C48.051 80.8869 48.0224 80.8395 47.9846 80.8C47.8846 80.7 47.8846 80.7 47.7846 80.7L43.4846 81.1C43.3846 81.1 43.3846 81.2 43.3846 81.3V81.6C43.378 81.6543 43.3836 81.7094 43.4009 81.7612C43.4182 81.8131 43.4468 81.8605 43.4846 81.9L47.7846 87.2ZM48.2846 90V90.2C48.2891 90.2515 48.3116 90.2998 48.3482 90.3364C48.3848 90.373 48.433 90.3955 48.4846 90.4L49.5846 91C49.6846 91.1 49.7846 91 49.7846 90.9L52.9846 81.3V81.1C52.9801 81.0485 52.9576 81.0002 52.921 80.9636C52.8844 80.927 52.8361 80.9045 52.7846 80.9L51.6846 80.4C51.5846 80.3 51.4846 80.4 51.4846 80.5L48.2846 90ZM60.4846 92.3C60.4846 92.2 60.4846 92.2 60.3846 92.1C60.2846 92 60.2846 92 60.1846 91.9L58.8846 91C58.6846 91 58.6846 91 58.5846 91.1C58.4846 91.6 58.2846 91.9 57.9846 92C57.7747 92.0369 57.5594 92.0293 57.3527 91.9776C57.1459 91.9259 56.9524 91.8313 56.7846 91.7C56.1404 91.3229 55.6194 90.7671 55.2846 90.1C54.946 89.3105 54.7757 88.459 54.7846 87.6V87.5C54.7427 87.1588 54.7746 86.8126 54.8781 86.4848C54.9816 86.157 55.1543 85.8553 55.3846 85.6C55.6846 85.3 56.1846 85.3 56.8846 85.7C57.3373 85.9243 57.7183 86.2706 57.9846 86.7C58.2257 87.172 58.3943 87.6777 58.4846 88.2C58.4846 88.3 58.5846 88.5 58.6846 88.5L60.0846 89.3H60.2846C60.3389 89.2461 60.374 89.1758 60.3846 89.1C60.2977 87.9795 59.9319 86.8984 59.3206 85.9553C58.7094 85.0122 57.8719 84.2369 56.8846 83.7C54.5846 82.4 52.9846 83.4 52.9846 86.2V86.3C52.9589 87.6982 53.3039 89.0783 53.9846 90.3C54.6814 91.5296 55.6793 92.5619 56.8846 93.3C57.5895 93.7716 58.45 93.9509 59.2846 93.8C59.8846 93.9 60.2846 93.3 60.4846 92.3ZM69.9846 100.8C70.0096 100.95 70.0793 101.09 70.1846 101.2L72.4846 102.5C73.8846 103.3 74.8846 103.4 75.6846 103C76.4846 102.6 76.6846 101.6 76.6846 100.3V100.2C76.6973 98.835 76.3526 97.4904 75.6846 96.3C74.9165 95.0317 73.8529 93.9681 72.5846 93.2L70.2846 91.9C70.1846 91.8 70.0846 91.9 70.0846 92L69.9846 100.8ZM77.5846 105.2C77.6096 105.35 77.6793 105.49 77.7846 105.6L82.7846 108.5C82.8846 108.6 82.9846 108.5 82.9846 108.4V107C82.9595 106.85 82.8899 106.71 82.7846 106.6L79.4846 104.7V102.6L81.9846 104C82.0846 104.1 82.1846 104 82.1846 103.9V102.7C82.1595 102.55 82.0899 102.41 81.9846 102.3L79.4846 100.9V99L82.5846 100.8C82.6846 100.9 82.7846 100.8 82.7846 100.7V99.4C82.7595 99.2496 82.6899 99.1103 82.5846 99L77.7846 96.2C77.6846 96.1 77.5846 96.2 77.5846 96.3V105.2ZM83.5846 107.7C83.578 107.754 83.5836 107.809 83.6009 107.861C83.6182 107.913 83.6468 107.96 83.6846 108C83.7846 108.1 83.7846 108.1 83.8846 108.1L88.1846 107.7C88.2846 107.7 88.2846 107.6 88.2846 107.5V107.2C88.2911 107.146 88.2855 107.091 88.2682 107.039C88.251 106.987 88.2224 106.94 88.1846 106.9L83.8846 101.6C83.7846 101.5 83.7846 101.5 83.6846 101.5C83.5846 101.5 83.5846 101.6 83.5846 101.7V103.1C83.578 103.154 83.5836 103.209 83.6009 103.261C83.6182 103.313 83.6468 103.36 83.6846 103.4L85.8846 106L83.6846 106.1C83.5846 106.1 83.5846 106.2 83.5846 106.3V107.7ZM64.9846 98.3C65.4039 98.631 65.9092 98.8351 66.4408 98.8883C66.9723 98.9414 67.508 98.8414 67.9846 98.6C68.6846 98.2 69.0846 97.2 69.0846 95.8V95.7C69.076 94.2931 68.6966 92.9134 67.9846 91.7C67.3159 90.4497 66.3115 89.4107 65.0846 88.7C62.6846 87.3 60.9846 88.4 60.9846 91.1V91.2C61.0201 92.603 61.3978 93.9761 62.0846 95.2C62.6891 96.5208 63.707 97.6089 64.9846 98.3V98.3ZM64.9846 96.5C64.33 96.0611 63.783 95.48 63.3846 94.8C62.976 94.031 62.7696 93.1707 62.7846 92.3V92.2C62.741 91.8741 62.7724 91.5425 62.8764 91.2306C62.9803 90.9187 63.1542 90.6346 63.3846 90.4C63.7846 90.1 64.2846 90.1 64.9846 90.5C65.6625 90.9107 66.2157 91.4984 66.5846 92.2C66.9825 92.9371 67.1888 93.7624 67.1846 94.6V94.7C67.2282 95.0259 67.1968 95.3575 67.0928 95.6694C66.9888 95.9814 66.815 96.2654 66.5846 96.5C66.1846 96.9 65.6846 96.8 64.9846 96.5ZM71.7846 100.3V94.6L72.3846 95C73.1474 95.4115 73.7731 96.0372 74.1846 96.8C74.5602 97.5418 74.7327 98.3699 74.6846 99.2V99.3C74.7282 99.6259 74.6968 99.9575 74.5928 100.269C74.4888 100.581 74.315 100.865 74.0846 101.1C73.6846 101.4 73.1846 101.3 72.2846 100.8L71.7846 100.3Z" fill="white"/>
<path d="M36.3046 135.41L43.7946 139.74V149.79L36.3046 145.47V135.41Z" fill="white"/>
<path d="M43.7946 150C43.7551 150.009 43.7141 150.009 43.6746 150L36.1846 145.67C36.1459 145.65 36.1134 145.62 36.0905 145.583C36.0676 145.546 36.0552 145.504 36.0546 145.46V135.41C36.054 135.366 36.066 135.323 36.089 135.286C36.112 135.249 36.1452 135.219 36.1846 135.2C36.2218 135.176 36.2652 135.163 36.3096 135.163C36.3539 135.163 36.3973 135.176 36.4346 135.2L43.9246 139.52C43.9622 139.543 43.9931 139.575 44.0141 139.614C44.0352 139.653 44.0457 139.696 44.0446 139.74V149.74C44.0457 149.784 44.0352 149.828 44.0141 149.866C43.9931 149.905 43.9622 149.937 43.9246 149.96C43.8852 149.984 43.8405 149.998 43.7946 150V150ZM36.5546 145.28L43.5546 149.28V139.8L36.5546 135.8V145.28Z" fill="black"/>
<path d="M37.3346 137.35L42.8146 140.52V145.33L37.3346 142.17V137.35Z" fill="white"/>
<path d="M42.8146 145.58H42.6946L37.2146 142.41C37.1752 142.391 37.142 142.361 37.119 142.324C37.096 142.287 37.084 142.244 37.0846 142.2V137.38C37.084 137.336 37.096 137.293 37.119 137.256C37.142 137.219 37.1752 137.189 37.2146 137.17C37.2518 137.146 37.2952 137.133 37.3396 137.133C37.3839 137.133 37.4273 137.146 37.4646 137.17L42.9446 140.33C42.9822 140.353 43.0131 140.385 43.0341 140.424C43.0552 140.462 43.0657 140.506 43.0646 140.55V145.36C43.0668 145.404 43.0567 145.448 43.0356 145.487C43.0144 145.526 42.9829 145.558 42.9446 145.58C42.9018 145.59 42.8573 145.59 42.8146 145.58V145.58ZM37.5846 142L42.5846 144.88V140.64L37.5846 137.77V142Z" fill="black"/>
</svg>
